<?xml version="1.0" encoding="utf-8" standalone="no"?>
<!DOCTYPE svg PUBLIC "-//W3C//DTD SVG 1.1//EN"
  "http://www.w3.org/Graphics/SVG/1.1/DTD/svg11.dtd">
<svg height="288pt" version="1.1" viewBox="0 0 432 288" width="432pt" xmlns="http://www.w3.org/2000/svg" xmlns:xlink="http://www.w3.org/1999/xlink">
 <metadata>
  <rdf:RDF xmlns:cc="http://creativecommons.org/ns#" xmlns:dc="http://purl.org/dc/elements/1.1/" xmlns:rdf="http://www.w3.org/1999/02/22-rdf-syntax-ns#">
   <cc:Work>
    <dc:type rdf:resource="http://purl.org/dc/dcmitype/StillImage"/>
    <dc:date>2021-10-03T16:52:12.757191</dc:date>
    <dc:format>image/svg+xml</dc:format>
    <dc:creator>
     <cc:Agent>
      <dc:title>Matplotlib v3.4.3, https://matplotlib.org/</dc:title>
     </cc:Agent>
    </dc:creator>
   </cc:Work>
  </rdf:RDF>
 </metadata>
 <defs>
  <style type="text/css">*{stroke-linecap:butt;stroke-linejoin:round;}</style>
 </defs>
 <g id="figure_1">
  <g id="patch_1">
   <path d="M 0 288 
L 432 288 
L 432 0 
L 0 0 
z
" style="fill:none;"/>
  </g>
  <g id="axes_1">
   <g id="patch_2">
    <path d="M 54 252 
L 388.8 252 
L 388.8 34.56 
L 54 34.56 
z
" style="fill:#ffffff;"/>
   </g>
   <g id="PathCollection_1">
    <defs>
     <path d="M 0 3 
C 0.795609 3 1.55874 2.683901 2.12132 2.12132 
C 2.683901 1.55874 3 0.795609 3 0 
C 3 -0.795609 2.683901 -1.55874 2.12132 -2.12132 
C 1.55874 -2.683901 0.795609 -3 0 -3 
C -0.795609 -3 -1.55874 -2.683901 -2.12132 -2.12132 
C -2.683901 -1.55874 -3 -0.795609 -3 0 
C -3 0.795609 -2.683901 1.55874 -2.12132 2.12132 
C -1.55874 2.683901 -0.795609 3 0 3 
z
" id="m4949e268b3" style="stroke:#ffffff;stroke-width:0.48;"/>
    </defs>
    <g clip-path="url(#pa3f4a1e9e5)">
     <use style="fill:#1f77b4;stroke:#ffffff;stroke-width:0.48;" x="69.218182" xlink:href="#m4949e268b3" y="242.116364"/>
     <use style="fill:#1f77b4;stroke:#ffffff;stroke-width:0.48;" x="77.227751" xlink:href="#m4949e268b3" y="242.001"/>
     <use style="fill:#1f77b4;stroke:#ffffff;stroke-width:0.48;" x="85.237321" xlink:href="#m4949e268b3" y="242.028714"/>
     <use style="fill:#1f77b4;stroke:#ffffff;stroke-width:0.48;" x="93.24689" xlink:href="#m4949e268b3" y="242.037829"/>
     <use style="fill:#1f77b4;stroke:#ffffff;stroke-width:0.48;" x="101.256459" xlink:href="#m4949e268b3" y="241.962289"/>
     <use style="fill:#1f77b4;stroke:#ffffff;stroke-width:0.48;" x="109.266029" xlink:href="#m4949e268b3" y="241.975147"/>
     <use style="fill:#1f77b4;stroke:#ffffff;stroke-width:0.48;" x="117.275598" xlink:href="#m4949e268b3" y="241.891623"/>
     <use style="fill:#1f77b4;stroke:#ffffff;stroke-width:0.48;" x="125.285167" xlink:href="#m4949e268b3" y="241.884379"/>
     <use style="fill:#1f77b4;stroke:#ffffff;stroke-width:0.48;" x="133.294737" xlink:href="#m4949e268b3" y="242.020502"/>
     <use style="fill:#1f77b4;stroke:#ffffff;stroke-width:0.48;" x="141.304306" xlink:href="#m4949e268b3" y="241.860259"/>
     <use style="fill:#1f77b4;stroke:#ffffff;stroke-width:0.48;" x="149.313876" xlink:href="#m4949e268b3" y="241.697955"/>
     <use style="fill:#1f77b4;stroke:#ffffff;stroke-width:0.48;" x="157.323445" xlink:href="#m4949e268b3" y="241.534126"/>
     <use style="fill:#1f77b4;stroke:#ffffff;stroke-width:0.48;" x="165.333014" xlink:href="#m4949e268b3" y="241.59467"/>
     <use style="fill:#1f77b4;stroke:#ffffff;stroke-width:0.48;" x="173.342584" xlink:href="#m4949e268b3" y="241.967153"/>
     <use style="fill:#1f77b4;stroke:#ffffff;stroke-width:0.48;" x="181.352153" xlink:href="#m4949e268b3" y="241.954273"/>
     <use style="fill:#1f77b4;stroke:#ffffff;stroke-width:0.48;" x="189.361722" xlink:href="#m4949e268b3" y="241.710155"/>
     <use style="fill:#1f77b4;stroke:#ffffff;stroke-width:0.48;" x="197.371292" xlink:href="#m4949e268b3" y="241.944225"/>
     <use style="fill:#1f77b4;stroke:#ffffff;stroke-width:0.48;" x="205.380861" xlink:href="#m4949e268b3" y="241.914786"/>
     <use style="fill:#1f77b4;stroke:#ffffff;stroke-width:0.48;" x="213.390431" xlink:href="#m4949e268b3" y="241.909923"/>
     <use style="fill:#1f77b4;stroke:#ffffff;stroke-width:0.48;" x="221.4" xlink:href="#m4949e268b3" y="241.864944"/>
     <use style="fill:#1f77b4;stroke:#ffffff;stroke-width:0.48;" x="229.409569" xlink:href="#m4949e268b3" y="241.52451"/>
     <use style="fill:#1f77b4;stroke:#ffffff;stroke-width:0.48;" x="237.419139" xlink:href="#m4949e268b3" y="241.255034"/>
     <use style="fill:#1f77b4;stroke:#ffffff;stroke-width:0.48;" x="245.428708" xlink:href="#m4949e268b3" y="241.508571"/>
     <use style="fill:#1f77b4;stroke:#ffffff;stroke-width:0.48;" x="253.438278" xlink:href="#m4949e268b3" y="241.46556"/>
     <use style="fill:#1f77b4;stroke:#ffffff;stroke-width:0.48;" x="261.447847" xlink:href="#m4949e268b3" y="241.32176"/>
     <use style="fill:#1f77b4;stroke:#ffffff;stroke-width:0.48;" x="269.457416" xlink:href="#m4949e268b3" y="240.785988"/>
     <use style="fill:#1f77b4;stroke:#ffffff;stroke-width:0.48;" x="277.466986" xlink:href="#m4949e268b3" y="240.858892"/>
     <use style="fill:#1f77b4;stroke:#ffffff;stroke-width:0.48;" x="285.476555" xlink:href="#m4949e268b3" y="238.969325"/>
     <use style="fill:#1f77b4;stroke:#ffffff;stroke-width:0.48;" x="293.486124" xlink:href="#m4949e268b3" y="239.177768"/>
     <use style="fill:#1f77b4;stroke:#ffffff;stroke-width:0.48;" x="301.495694" xlink:href="#m4949e268b3" y="237.27605"/>
     <use style="fill:#1f77b4;stroke:#ffffff;stroke-width:0.48;" x="309.505263" xlink:href="#m4949e268b3" y="235.123622"/>
     <use style="fill:#1f77b4;stroke:#ffffff;stroke-width:0.48;" x="317.514833" xlink:href="#m4949e268b3" y="230.673737"/>
     <use style="fill:#1f77b4;stroke:#ffffff;stroke-width:0.48;" x="325.524402" xlink:href="#m4949e268b3" y="223.380036"/>
     <use style="fill:#1f77b4;stroke:#ffffff;stroke-width:0.48;" x="333.533971" xlink:href="#m4949e268b3" y="208.721945"/>
     <use style="fill:#1f77b4;stroke:#ffffff;stroke-width:0.48;" x="341.543541" xlink:href="#m4949e268b3" y="188.347423"/>
     <use style="fill:#1f77b4;stroke:#ffffff;stroke-width:0.48;" x="349.55311" xlink:href="#m4949e268b3" y="164.330694"/>
     <use style="fill:#1f77b4;stroke:#ffffff;stroke-width:0.48;" x="357.562679" xlink:href="#m4949e268b3" y="115.480545"/>
     <use style="fill:#1f77b4;stroke:#ffffff;stroke-width:0.48;" x="365.572249" xlink:href="#m4949e268b3" y="44.443636"/>
    </g>
   </g>
   <g id="PathCollection_2">
    <defs>
     <path d="M 0 3 
C 0.795609 3 1.55874 2.683901 2.12132 2.12132 
C 2.683901 1.55874 3 0.795609 3 0 
C 3 -0.795609 2.683901 -1.55874 2.12132 -2.12132 
C 1.55874 -2.683901 0.795609 -3 0 -3 
C -0.795609 -3 -1.55874 -2.683901 -2.12132 -2.12132 
C -2.683901 -1.55874 -3 -0.795609 -3 0 
C -3 0.795609 -2.683901 1.55874 -2.12132 2.12132 
C -1.55874 2.683901 -0.795609 3 0 3 
z
" id="m4105ce767a" style="stroke:#ffffff;stroke-width:0.48;"/>
    </defs>
    <g clip-path="url(#pa3f4a1e9e5)">
     <use style="fill:#ff0000;stroke:#ffffff;stroke-width:0.48;" x="69.218182" xlink:href="#m4105ce767a" y="241.863687"/>
     <use style="fill:#ff0000;stroke:#ffffff;stroke-width:0.48;" x="77.227751" xlink:href="#m4105ce767a" y="241.880867"/>
     <use style="fill:#ff0000;stroke:#ffffff;stroke-width:0.48;" x="85.237321" xlink:href="#m4105ce767a" y="241.939989"/>
     <use style="fill:#ff0000;stroke:#ffffff;stroke-width:0.48;" x="93.24689" xlink:href="#m4105ce767a" y="241.985084"/>
     <use style="fill:#ff0000;stroke:#ffffff;stroke-width:0.48;" x="101.256459" xlink:href="#m4105ce767a" y="241.894233"/>
     <use style="fill:#ff0000;stroke:#ffffff;stroke-width:0.48;" x="109.266029" xlink:href="#m4105ce767a" y="241.949595"/>
     <use style="fill:#ff0000;stroke:#ffffff;stroke-width:0.48;" x="117.275598" xlink:href="#m4105ce767a" y="241.877539"/>
     <use style="fill:#ff0000;stroke:#ffffff;stroke-width:0.48;" x="125.285167" xlink:href="#m4105ce767a" y="241.849043"/>
     <use style="fill:#ff0000;stroke:#ffffff;stroke-width:0.48;" x="133.294737" xlink:href="#m4105ce767a" y="242.04604"/>
     <use style="fill:#ff0000;stroke:#ffffff;stroke-width:0.48;" x="141.304306" xlink:href="#m4105ce767a" y="241.968818"/>
     <use style="fill:#ff0000;stroke:#ffffff;stroke-width:0.48;" x="149.313876" xlink:href="#m4105ce767a" y="241.779258"/>
     <use style="fill:#ff0000;stroke:#ffffff;stroke-width:0.48;" x="157.323445" xlink:href="#m4105ce767a" y="241.814385"/>
     <use style="fill:#ff0000;stroke:#ffffff;stroke-width:0.48;" x="165.333014" xlink:href="#m4105ce767a" y="241.993366"/>
     <use style="fill:#ff0000;stroke:#ffffff;stroke-width:0.48;" x="173.342584" xlink:href="#m4105ce767a" y="241.882488"/>
     <use style="fill:#ff0000;stroke:#ffffff;stroke-width:0.48;" x="181.352153" xlink:href="#m4105ce767a" y="241.961914"/>
     <use style="fill:#ff0000;stroke:#ffffff;stroke-width:0.48;" x="189.361722" xlink:href="#m4105ce767a" y="241.995414"/>
     <use style="fill:#ff0000;stroke:#ffffff;stroke-width:0.48;" x="197.371292" xlink:href="#m4105ce767a" y="241.879738"/>
     <use style="fill:#ff0000;stroke:#ffffff;stroke-width:0.48;" x="205.380861" xlink:href="#m4105ce767a" y="241.977197"/>
     <use style="fill:#ff0000;stroke:#ffffff;stroke-width:0.48;" x="213.390431" xlink:href="#m4105ce767a" y="241.993789"/>
     <use style="fill:#ff0000;stroke:#ffffff;stroke-width:0.48;" x="221.4" xlink:href="#m4105ce767a" y="241.923569"/>
     <use style="fill:#ff0000;stroke:#ffffff;stroke-width:0.48;" x="229.409569" xlink:href="#m4105ce767a" y="241.872987"/>
     <use style="fill:#ff0000;stroke:#ffffff;stroke-width:0.48;" x="237.419139" xlink:href="#m4105ce767a" y="241.808713"/>
     <use style="fill:#ff0000;stroke:#ffffff;stroke-width:0.48;" x="245.428708" xlink:href="#m4105ce767a" y="241.31346"/>
     <use style="fill:#ff0000;stroke:#ffffff;stroke-width:0.48;" x="253.438278" xlink:href="#m4105ce767a" y="241.174075"/>
     <use style="fill:#ff0000;stroke:#ffffff;stroke-width:0.48;" x="261.447847" xlink:href="#m4105ce767a" y="241.608986"/>
     <use style="fill:#ff0000;stroke:#ffffff;stroke-width:0.48;" x="269.457416" xlink:href="#m4105ce767a" y="241.473071"/>
     <use style="fill:#ff0000;stroke:#ffffff;stroke-width:0.48;" x="277.466986" xlink:href="#m4105ce767a" y="241.217272"/>
     <use style="fill:#ff0000;stroke:#ffffff;stroke-width:0.48;" x="285.476555" xlink:href="#m4105ce767a" y="240.83331"/>
     <use style="fill:#ff0000;stroke:#ffffff;stroke-width:0.48;" x="293.486124" xlink:href="#m4105ce767a" y="240.093753"/>
     <use style="fill:#ff0000;stroke:#ffffff;stroke-width:0.48;" x="301.495694" xlink:href="#m4105ce767a" y="238.734282"/>
     <use style="fill:#ff0000;stroke:#ffffff;stroke-width:0.48;" x="309.505263" xlink:href="#m4105ce767a" y="237.520481"/>
     <use style="fill:#ff0000;stroke:#ffffff;stroke-width:0.48;" x="317.514833" xlink:href="#m4105ce767a" y="236.279357"/>
     <use style="fill:#ff0000;stroke:#ffffff;stroke-width:0.48;" x="325.524402" xlink:href="#m4105ce767a" y="231.026194"/>
     <use style="fill:#ff0000;stroke:#ffffff;stroke-width:0.48;" x="333.533971" xlink:href="#m4105ce767a" y="225.502391"/>
     <use style="fill:#ff0000;stroke:#ffffff;stroke-width:0.48;" x="341.543541" xlink:href="#m4105ce767a" y="216.952056"/>
     <use style="fill:#ff0000;stroke:#ffffff;stroke-width:0.48;" x="349.55311" xlink:href="#m4105ce767a" y="206.338244"/>
     <use style="fill:#ff0000;stroke:#ffffff;stroke-width:0.48;" x="357.562679" xlink:href="#m4105ce767a" y="186.589586"/>
     <use style="fill:#ff0000;stroke:#ffffff;stroke-width:0.48;" x="365.572249" xlink:href="#m4105ce767a" y="156.468174"/>
     <use style="fill:#ff0000;stroke:#ffffff;stroke-width:0.48;" x="373.581818" xlink:href="#m4105ce767a" y="108.097398"/>
    </g>
   </g>
   <g id="PathCollection_3">
    <defs>
     <path d="M 0 3 
C 0.795609 3 1.55874 2.683901 2.12132 2.12132 
C 2.683901 1.55874 3 0.795609 3 0 
C 3 -0.795609 2.683901 -1.55874 2.12132 -2.12132 
C 1.55874 -2.683901 0.795609 -3 0 -3 
C -0.795609 -3 -1.55874 -2.683901 -2.12132 -2.12132 
C -2.683901 -1.55874 -3 -0.795609 -3 0 
C -3 0.795609 -2.683901 1.55874 -2.12132 2.12132 
C -1.55874 2.683901 -0.795609 3 0 3 
z
" id="mcb689305fb" style="stroke:#ffffff;stroke-width:0.48;"/>
    </defs>
    <g clip-path="url(#pa3f4a1e9e5)">
     <use style="fill:#008000;stroke:#ffffff;stroke-width:0.48;" x="69.218182" xlink:href="#mcb689305fb" y="241.814025"/>
     <use style="fill:#008000;stroke:#ffffff;stroke-width:0.48;" x="77.227751" xlink:href="#mcb689305fb" y="241.444177"/>
     <use style="fill:#008000;stroke:#ffffff;stroke-width:0.48;" x="85.237321" xlink:href="#mcb689305fb" y="241.285625"/>
     <use style="fill:#008000;stroke:#ffffff;stroke-width:0.48;" x="93.24689" xlink:href="#mcb689305fb" y="241.526292"/>
     <use style="fill:#008000;stroke:#ffffff;stroke-width:0.48;" x="101.256459" xlink:href="#mcb689305fb" y="241.735632"/>
     <use style="fill:#008000;stroke:#ffffff;stroke-width:0.48;" x="109.266029" xlink:href="#mcb689305fb" y="241.988169"/>
     <use style="fill:#008000;stroke:#ffffff;stroke-width:0.48;" x="117.275598" xlink:href="#mcb689305fb" y="241.811772"/>
     <use style="fill:#008000;stroke:#ffffff;stroke-width:0.48;" x="125.285167" xlink:href="#mcb689305fb" y="241.626158"/>
     <use style="fill:#008000;stroke:#ffffff;stroke-width:0.48;" x="133.294737" xlink:href="#mcb689305fb" y="242.0095"/>
     <use style="fill:#008000;stroke:#ffffff;stroke-width:0.48;" x="141.304306" xlink:href="#mcb689305fb" y="242.02997"/>
     <use style="fill:#008000;stroke:#ffffff;stroke-width:0.48;" x="149.313876" xlink:href="#mcb689305fb" y="241.677974"/>
     <use style="fill:#008000;stroke:#ffffff;stroke-width:0.48;" x="157.323445" xlink:href="#mcb689305fb" y="241.822948"/>
     <use style="fill:#008000;stroke:#ffffff;stroke-width:0.48;" x="165.333014" xlink:href="#mcb689305fb" y="241.881889"/>
     <use style="fill:#008000;stroke:#ffffff;stroke-width:0.48;" x="173.342584" xlink:href="#mcb689305fb" y="241.780458"/>
     <use style="fill:#008000;stroke:#ffffff;stroke-width:0.48;" x="181.352153" xlink:href="#mcb689305fb" y="242.008624"/>
     <use style="fill:#008000;stroke:#ffffff;stroke-width:0.48;" x="189.361722" xlink:href="#mcb689305fb" y="241.748792"/>
     <use style="fill:#008000;stroke:#ffffff;stroke-width:0.48;" x="197.371292" xlink:href="#mcb689305fb" y="241.60339"/>
     <use style="fill:#008000;stroke:#ffffff;stroke-width:0.48;" x="205.380861" xlink:href="#mcb689305fb" y="242.018108"/>
     <use style="fill:#008000;stroke:#ffffff;stroke-width:0.48;" x="213.390431" xlink:href="#mcb689305fb" y="241.993076"/>
     <use style="fill:#008000;stroke:#ffffff;stroke-width:0.48;" x="221.4" xlink:href="#mcb689305fb" y="241.763657"/>
     <use style="fill:#008000;stroke:#ffffff;stroke-width:0.48;" x="229.409569" xlink:href="#mcb689305fb" y="241.799102"/>
     <use style="fill:#008000;stroke:#ffffff;stroke-width:0.48;" x="237.419139" xlink:href="#mcb689305fb" y="241.929075"/>
     <use style="fill:#008000;stroke:#ffffff;stroke-width:0.48;" x="245.428708" xlink:href="#mcb689305fb" y="241.919516"/>
     <use style="fill:#008000;stroke:#ffffff;stroke-width:0.48;" x="253.438278" xlink:href="#mcb689305fb" y="241.9802"/>
     <use style="fill:#008000;stroke:#ffffff;stroke-width:0.48;" x="261.447847" xlink:href="#mcb689305fb" y="241.897229"/>
     <use style="fill:#008000;stroke:#ffffff;stroke-width:0.48;" x="269.457416" xlink:href="#mcb689305fb" y="241.714067"/>
     <use style="fill:#008000;stroke:#ffffff;stroke-width:0.48;" x="277.466986" xlink:href="#mcb689305fb" y="241.938897"/>
     <use style="fill:#008000;stroke:#ffffff;stroke-width:0.48;" x="285.476555" xlink:href="#mcb689305fb" y="241.985889"/>
     <use style="fill:#008000;stroke:#ffffff;stroke-width:0.48;" x="293.486124" xlink:href="#mcb689305fb" y="241.900233"/>
     <use style="fill:#008000;stroke:#ffffff;stroke-width:0.48;" x="301.495694" xlink:href="#mcb689305fb" y="241.710637"/>
     <use style="fill:#008000;stroke:#ffffff;stroke-width:0.48;" x="309.505263" xlink:href="#mcb689305fb" y="241.955049"/>
     <use style="fill:#008000;stroke:#ffffff;stroke-width:0.48;" x="317.514833" xlink:href="#mcb689305fb" y="241.889854"/>
     <use style="fill:#008000;stroke:#ffffff;stroke-width:0.48;" x="325.524402" xlink:href="#mcb689305fb" y="241.982016"/>
     <use style="fill:#008000;stroke:#ffffff;stroke-width:0.48;" x="333.533971" xlink:href="#mcb689305fb" y="242.001462"/>
     <use style="fill:#008000;stroke:#ffffff;stroke-width:0.48;" x="341.543541" xlink:href="#mcb689305fb" y="241.843685"/>
     <use style="fill:#008000;stroke:#ffffff;stroke-width:0.48;" x="349.55311" xlink:href="#mcb689305fb" y="241.9056"/>
     <use style="fill:#008000;stroke:#ffffff;stroke-width:0.48;" x="357.562679" xlink:href="#mcb689305fb" y="241.993338"/>
     <use style="fill:#008000;stroke:#ffffff;stroke-width:0.48;" x="365.572249" xlink:href="#mcb689305fb" y="241.873036"/>
     <use style="fill:#008000;stroke:#ffffff;stroke-width:0.48;" x="373.581818" xlink:href="#mcb689305fb" y="242.016044"/>
    </g>
   </g>
   <g id="matplotlib.axis_1">
    <g id="xtick_1">
     <g id="line2d_1">
      <defs>
       <path d="M 0 0 
L 0 3.5 
" id="me35ab19400" style="stroke:#000000;stroke-width:0.8;"/>
      </defs>
      <g>
       <use style="stroke:#000000;stroke-width:0.8;" x="61.208612" xlink:href="#me35ab19400" y="252"/>
      </g>
     </g>
     <g id="text_1">
      <!-- 0 -->
      <g transform="translate(58.027362 266.598437)scale(0.1 -0.1)">
       <defs>
        <path d="M 2034 4250 
Q 1547 4250 1301 3770 
Q 1056 3291 1056 2328 
Q 1056 1369 1301 889 
Q 1547 409 2034 409 
Q 2525 409 2770 889 
Q 3016 1369 3016 2328 
Q 3016 3291 2770 3770 
Q 2525 4250 2034 4250 
z
M 2034 4750 
Q 2819 4750 3233 4129 
Q 3647 3509 3647 2328 
Q 3647 1150 3233 529 
Q 2819 -91 2034 -91 
Q 1250 -91 836 529 
Q 422 1150 422 2328 
Q 422 3509 836 4129 
Q 1250 4750 2034 4750 
z
" id="DejaVuSans-30" transform="scale(0.015625)"/>
       </defs>
       <use xlink:href="#DejaVuSans-30"/>
      </g>
     </g>
    </g>
    <g id="xtick_2">
     <g id="line2d_2">
      <g>
       <use style="stroke:#000000;stroke-width:0.8;" x="101.256459" xlink:href="#me35ab19400" y="252"/>
      </g>
     </g>
     <g id="text_2">
      <!-- 5 -->
      <g transform="translate(98.075209 266.598437)scale(0.1 -0.1)">
       <defs>
        <path d="M 691 4666 
L 3169 4666 
L 3169 4134 
L 1269 4134 
L 1269 2991 
Q 1406 3038 1543 3061 
Q 1681 3084 1819 3084 
Q 2600 3084 3056 2656 
Q 3513 2228 3513 1497 
Q 3513 744 3044 326 
Q 2575 -91 1722 -91 
Q 1428 -91 1123 -41 
Q 819 9 494 109 
L 494 744 
Q 775 591 1075 516 
Q 1375 441 1709 441 
Q 2250 441 2565 725 
Q 2881 1009 2881 1497 
Q 2881 1984 2565 2268 
Q 2250 2553 1709 2553 
Q 1456 2553 1204 2497 
Q 953 2441 691 2322 
L 691 4666 
z
" id="DejaVuSans-35" transform="scale(0.015625)"/>
       </defs>
       <use xlink:href="#DejaVuSans-35"/>
      </g>
     </g>
    </g>
    <g id="xtick_3">
     <g id="line2d_3">
      <g>
       <use style="stroke:#000000;stroke-width:0.8;" x="141.304306" xlink:href="#me35ab19400" y="252"/>
      </g>
     </g>
     <g id="text_3">
      <!-- 10 -->
      <g transform="translate(134.941806 266.598437)scale(0.1 -0.1)">
       <defs>
        <path d="M 794 531 
L 1825 531 
L 1825 4091 
L 703 3866 
L 703 4441 
L 1819 4666 
L 2450 4666 
L 2450 531 
L 3481 531 
L 3481 0 
L 794 0 
L 794 531 
z
" id="DejaVuSans-31" transform="scale(0.015625)"/>
       </defs>
       <use xlink:href="#DejaVuSans-31"/>
       <use x="63.623047" xlink:href="#DejaVuSans-30"/>
      </g>
     </g>
    </g>
    <g id="xtick_4">
     <g id="line2d_4">
      <g>
       <use style="stroke:#000000;stroke-width:0.8;" x="181.352153" xlink:href="#me35ab19400" y="252"/>
      </g>
     </g>
     <g id="text_4">
      <!-- 15 -->
      <g transform="translate(174.989653 266.598437)scale(0.1 -0.1)">
       <use xlink:href="#DejaVuSans-31"/>
       <use x="63.623047" xlink:href="#DejaVuSans-35"/>
      </g>
     </g>
    </g>
    <g id="xtick_5">
     <g id="line2d_5">
      <g>
       <use style="stroke:#000000;stroke-width:0.8;" x="221.4" xlink:href="#me35ab19400" y="252"/>
      </g>
     </g>
     <g id="text_5">
      <!-- 20 -->
      <g transform="translate(215.0375 266.598437)scale(0.1 -0.1)">
       <defs>
        <path d="M 1228 531 
L 3431 531 
L 3431 0 
L 469 0 
L 469 531 
Q 828 903 1448 1529 
Q 2069 2156 2228 2338 
Q 2531 2678 2651 2914 
Q 2772 3150 2772 3378 
Q 2772 3750 2511 3984 
Q 2250 4219 1831 4219 
Q 1534 4219 1204 4116 
Q 875 4013 500 3803 
L 500 4441 
Q 881 4594 1212 4672 
Q 1544 4750 1819 4750 
Q 2544 4750 2975 4387 
Q 3406 4025 3406 3419 
Q 3406 3131 3298 2873 
Q 3191 2616 2906 2266 
Q 2828 2175 2409 1742 
Q 1991 1309 1228 531 
z
" id="DejaVuSans-32" transform="scale(0.015625)"/>
       </defs>
       <use xlink:href="#DejaVuSans-32"/>
       <use x="63.623047" xlink:href="#DejaVuSans-30"/>
      </g>
     </g>
    </g>
    <g id="xtick_6">
     <g id="line2d_6">
      <g>
       <use style="stroke:#000000;stroke-width:0.8;" x="261.447847" xlink:href="#me35ab19400" y="252"/>
      </g>
     </g>
     <g id="text_6">
      <!-- 25 -->
      <g transform="translate(255.085347 266.598437)scale(0.1 -0.1)">
       <use xlink:href="#DejaVuSans-32"/>
       <use x="63.623047" xlink:href="#DejaVuSans-35"/>
      </g>
     </g>
    </g>
    <g id="xtick_7">
     <g id="line2d_7">
      <g>
       <use style="stroke:#000000;stroke-width:0.8;" x="301.495694" xlink:href="#me35ab19400" y="252"/>
      </g>
     </g>
     <g id="text_7">
      <!-- 30 -->
      <g transform="translate(295.133194 266.598437)scale(0.1 -0.1)">
       <defs>
        <path d="M 2597 2516 
Q 3050 2419 3304 2112 
Q 3559 1806 3559 1356 
Q 3559 666 3084 287 
Q 2609 -91 1734 -91 
Q 1441 -91 1130 -33 
Q 819 25 488 141 
L 488 750 
Q 750 597 1062 519 
Q 1375 441 1716 441 
Q 2309 441 2620 675 
Q 2931 909 2931 1356 
Q 2931 1769 2642 2001 
Q 2353 2234 1838 2234 
L 1294 2234 
L 1294 2753 
L 1863 2753 
Q 2328 2753 2575 2939 
Q 2822 3125 2822 3475 
Q 2822 3834 2567 4026 
Q 2313 4219 1838 4219 
Q 1578 4219 1281 4162 
Q 984 4106 628 3988 
L 628 4550 
Q 988 4650 1302 4700 
Q 1616 4750 1894 4750 
Q 2613 4750 3031 4423 
Q 3450 4097 3450 3541 
Q 3450 3153 3228 2886 
Q 3006 2619 2597 2516 
z
" id="DejaVuSans-33" transform="scale(0.015625)"/>
       </defs>
       <use xlink:href="#DejaVuSans-33"/>
       <use x="63.623047" xlink:href="#DejaVuSans-30"/>
      </g>
     </g>
    </g>
    <g id="xtick_8">
     <g id="line2d_8">
      <g>
       <use style="stroke:#000000;stroke-width:0.8;" x="341.543541" xlink:href="#me35ab19400" y="252"/>
      </g>
     </g>
     <g id="text_8">
      <!-- 35 -->
      <g transform="translate(335.181041 266.598437)scale(0.1 -0.1)">
       <use xlink:href="#DejaVuSans-33"/>
       <use x="63.623047" xlink:href="#DejaVuSans-35"/>
      </g>
     </g>
    </g>
    <g id="xtick_9">
     <g id="line2d_9">
      <g>
       <use style="stroke:#000000;stroke-width:0.8;" x="381.591388" xlink:href="#me35ab19400" y="252"/>
      </g>
     </g>
     <g id="text_9">
      <!-- 40 -->
      <g transform="translate(375.228888 266.598437)scale(0.1 -0.1)">
       <defs>
        <path d="M 2419 4116 
L 825 1625 
L 2419 1625 
L 2419 4116 
z
M 2253 4666 
L 3047 4666 
L 3047 1625 
L 3713 1625 
L 3713 1100 
L 3047 1100 
L 3047 0 
L 2419 0 
L 2419 1100 
L 313 1100 
L 313 1709 
L 2253 4666 
z
" id="DejaVuSans-34" transform="scale(0.015625)"/>
       </defs>
       <use xlink:href="#DejaVuSans-34"/>
       <use x="63.623047" xlink:href="#DejaVuSans-30"/>
      </g>
     </g>
    </g>
    <g id="text_10">
     <!-- n -->
     <g transform="translate(218.23125 280.276563)scale(0.1 -0.1)">
      <defs>
       <path d="M 3513 2113 
L 3513 0 
L 2938 0 
L 2938 2094 
Q 2938 2591 2744 2837 
Q 2550 3084 2163 3084 
Q 1697 3084 1428 2787 
Q 1159 2491 1159 1978 
L 1159 0 
L 581 0 
L 581 3500 
L 1159 3500 
L 1159 2956 
Q 1366 3272 1645 3428 
Q 1925 3584 2291 3584 
Q 2894 3584 3203 3211 
Q 3513 2838 3513 2113 
z
" id="DejaVuSans-6e" transform="scale(0.015625)"/>
      </defs>
      <use xlink:href="#DejaVuSans-6e"/>
     </g>
    </g>
   </g>
   <g id="matplotlib.axis_2">
    <g id="ytick_1">
     <g id="line2d_10">
      <defs>
       <path d="M 0 0 
L -3.5 0 
" id="m17e71e640d" style="stroke:#000000;stroke-width:0.8;"/>
      </defs>
      <g>
       <use style="stroke:#000000;stroke-width:0.8;" x="54" xlink:href="#m17e71e640d" y="242.572859"/>
      </g>
     </g>
     <g id="text_11">
      <!-- 0 -->
      <g transform="translate(40.6375 246.372078)scale(0.1 -0.1)">
       <use xlink:href="#DejaVuSans-30"/>
      </g>
     </g>
    </g>
    <g id="ytick_2">
     <g id="line2d_11">
      <g>
       <use style="stroke:#000000;stroke-width:0.8;" x="54" xlink:href="#m17e71e640d" y="198.365643"/>
      </g>
     </g>
     <g id="text_12">
      <!-- 500 -->
      <g transform="translate(27.9125 202.164862)scale(0.1 -0.1)">
       <use xlink:href="#DejaVuSans-35"/>
       <use x="63.623047" xlink:href="#DejaVuSans-30"/>
       <use x="127.246094" xlink:href="#DejaVuSans-30"/>
      </g>
     </g>
    </g>
    <g id="ytick_3">
     <g id="line2d_12">
      <g>
       <use style="stroke:#000000;stroke-width:0.8;" x="54" xlink:href="#m17e71e640d" y="154.158427"/>
      </g>
     </g>
     <g id="text_13">
      <!-- 1000 -->
      <g transform="translate(21.55 157.957646)scale(0.1 -0.1)">
       <use xlink:href="#DejaVuSans-31"/>
       <use x="63.623047" xlink:href="#DejaVuSans-30"/>
       <use x="127.246094" xlink:href="#DejaVuSans-30"/>
       <use x="190.869141" xlink:href="#DejaVuSans-30"/>
      </g>
     </g>
    </g>
    <g id="ytick_4">
     <g id="line2d_13">
      <g>
       <use style="stroke:#000000;stroke-width:0.8;" x="54" xlink:href="#m17e71e640d" y="109.951211"/>
      </g>
     </g>
     <g id="text_14">
      <!-- 1500 -->
      <g transform="translate(21.55 113.75043)scale(0.1 -0.1)">
       <use xlink:href="#DejaVuSans-31"/>
       <use x="63.623047" xlink:href="#DejaVuSans-35"/>
       <use x="127.246094" xlink:href="#DejaVuSans-30"/>
       <use x="190.869141" xlink:href="#DejaVuSans-30"/>
      </g>
     </g>
    </g>
    <g id="ytick_5">
     <g id="line2d_14">
      <g>
       <use style="stroke:#000000;stroke-width:0.8;" x="54" xlink:href="#m17e71e640d" y="65.743995"/>
      </g>
     </g>
     <g id="text_15">
      <!-- 2000 -->
      <g transform="translate(21.55 69.543214)scale(0.1 -0.1)">
       <use xlink:href="#DejaVuSans-32"/>
       <use x="63.623047" xlink:href="#DejaVuSans-30"/>
       <use x="127.246094" xlink:href="#DejaVuSans-30"/>
       <use x="190.869141" xlink:href="#DejaVuSans-30"/>
      </g>
     </g>
    </g>
    <g id="text_16">
     <!-- tiempo (ms) -->
     <g transform="translate(15.470312 173.775312)rotate(-90)scale(0.1 -0.1)">
      <defs>
       <path d="M 1172 4494 
L 1172 3500 
L 2356 3500 
L 2356 3053 
L 1172 3053 
L 1172 1153 
Q 1172 725 1289 603 
Q 1406 481 1766 481 
L 2356 481 
L 2356 0 
L 1766 0 
Q 1100 0 847 248 
Q 594 497 594 1153 
L 594 3053 
L 172 3053 
L 172 3500 
L 594 3500 
L 594 4494 
L 1172 4494 
z
" id="DejaVuSans-74" transform="scale(0.015625)"/>
       <path d="M 603 3500 
L 1178 3500 
L 1178 0 
L 603 0 
L 603 3500 
z
M 603 4863 
L 1178 4863 
L 1178 4134 
L 603 4134 
L 603 4863 
z
" id="DejaVuSans-69" transform="scale(0.015625)"/>
       <path d="M 3597 1894 
L 3597 1613 
L 953 1613 
Q 991 1019 1311 708 
Q 1631 397 2203 397 
Q 2534 397 2845 478 
Q 3156 559 3463 722 
L 3463 178 
Q 3153 47 2828 -22 
Q 2503 -91 2169 -91 
Q 1331 -91 842 396 
Q 353 884 353 1716 
Q 353 2575 817 3079 
Q 1281 3584 2069 3584 
Q 2775 3584 3186 3129 
Q 3597 2675 3597 1894 
z
M 3022 2063 
Q 3016 2534 2758 2815 
Q 2500 3097 2075 3097 
Q 1594 3097 1305 2825 
Q 1016 2553 972 2059 
L 3022 2063 
z
" id="DejaVuSans-65" transform="scale(0.015625)"/>
       <path d="M 3328 2828 
Q 3544 3216 3844 3400 
Q 4144 3584 4550 3584 
Q 5097 3584 5394 3201 
Q 5691 2819 5691 2113 
L 5691 0 
L 5113 0 
L 5113 2094 
Q 5113 2597 4934 2840 
Q 4756 3084 4391 3084 
Q 3944 3084 3684 2787 
Q 3425 2491 3425 1978 
L 3425 0 
L 2847 0 
L 2847 2094 
Q 2847 2600 2669 2842 
Q 2491 3084 2119 3084 
Q 1678 3084 1418 2786 
Q 1159 2488 1159 1978 
L 1159 0 
L 581 0 
L 581 3500 
L 1159 3500 
L 1159 2956 
Q 1356 3278 1631 3431 
Q 1906 3584 2284 3584 
Q 2666 3584 2933 3390 
Q 3200 3197 3328 2828 
z
" id="DejaVuSans-6d" transform="scale(0.015625)"/>
       <path d="M 1159 525 
L 1159 -1331 
L 581 -1331 
L 581 3500 
L 1159 3500 
L 1159 2969 
Q 1341 3281 1617 3432 
Q 1894 3584 2278 3584 
Q 2916 3584 3314 3078 
Q 3713 2572 3713 1747 
Q 3713 922 3314 415 
Q 2916 -91 2278 -91 
Q 1894 -91 1617 61 
Q 1341 213 1159 525 
z
M 3116 1747 
Q 3116 2381 2855 2742 
Q 2594 3103 2138 3103 
Q 1681 3103 1420 2742 
Q 1159 2381 1159 1747 
Q 1159 1113 1420 752 
Q 1681 391 2138 391 
Q 2594 391 2855 752 
Q 3116 1113 3116 1747 
z
" id="DejaVuSans-70" transform="scale(0.015625)"/>
       <path d="M 1959 3097 
Q 1497 3097 1228 2736 
Q 959 2375 959 1747 
Q 959 1119 1226 758 
Q 1494 397 1959 397 
Q 2419 397 2687 759 
Q 2956 1122 2956 1747 
Q 2956 2369 2687 2733 
Q 2419 3097 1959 3097 
z
M 1959 3584 
Q 2709 3584 3137 3096 
Q 3566 2609 3566 1747 
Q 3566 888 3137 398 
Q 2709 -91 1959 -91 
Q 1206 -91 779 398 
Q 353 888 353 1747 
Q 353 2609 779 3096 
Q 1206 3584 1959 3584 
z
" id="DejaVuSans-6f" transform="scale(0.015625)"/>
       <path id="DejaVuSans-20" transform="scale(0.015625)"/>
       <path d="M 1984 4856 
Q 1566 4138 1362 3434 
Q 1159 2731 1159 2009 
Q 1159 1288 1364 580 
Q 1569 -128 1984 -844 
L 1484 -844 
Q 1016 -109 783 600 
Q 550 1309 550 2009 
Q 550 2706 781 3412 
Q 1013 4119 1484 4856 
L 1984 4856 
z
" id="DejaVuSans-28" transform="scale(0.015625)"/>
       <path d="M 2834 3397 
L 2834 2853 
Q 2591 2978 2328 3040 
Q 2066 3103 1784 3103 
Q 1356 3103 1142 2972 
Q 928 2841 928 2578 
Q 928 2378 1081 2264 
Q 1234 2150 1697 2047 
L 1894 2003 
Q 2506 1872 2764 1633 
Q 3022 1394 3022 966 
Q 3022 478 2636 193 
Q 2250 -91 1575 -91 
Q 1294 -91 989 -36 
Q 684 19 347 128 
L 347 722 
Q 666 556 975 473 
Q 1284 391 1588 391 
Q 1994 391 2212 530 
Q 2431 669 2431 922 
Q 2431 1156 2273 1281 
Q 2116 1406 1581 1522 
L 1381 1569 
Q 847 1681 609 1914 
Q 372 2147 372 2553 
Q 372 3047 722 3315 
Q 1072 3584 1716 3584 
Q 2034 3584 2315 3537 
Q 2597 3491 2834 3397 
z
" id="DejaVuSans-73" transform="scale(0.015625)"/>
       <path d="M 513 4856 
L 1013 4856 
Q 1481 4119 1714 3412 
Q 1947 2706 1947 2009 
Q 1947 1309 1714 600 
Q 1481 -109 1013 -844 
L 513 -844 
Q 928 -128 1133 580 
Q 1338 1288 1338 2009 
Q 1338 2731 1133 3434 
Q 928 4138 513 4856 
z
" id="DejaVuSans-29" transform="scale(0.015625)"/>
      </defs>
      <use xlink:href="#DejaVuSans-74"/>
      <use x="39.208984" xlink:href="#DejaVuSans-69"/>
      <use x="66.992188" xlink:href="#DejaVuSans-65"/>
      <use x="128.515625" xlink:href="#DejaVuSans-6d"/>
      <use x="225.927734" xlink:href="#DejaVuSans-70"/>
      <use x="289.404297" xlink:href="#DejaVuSans-6f"/>
      <use x="350.585938" xlink:href="#DejaVuSans-20"/>
      <use x="382.373047" xlink:href="#DejaVuSans-28"/>
      <use x="421.386719" xlink:href="#DejaVuSans-6d"/>
      <use x="518.798828" xlink:href="#DejaVuSans-73"/>
      <use x="570.898438" xlink:href="#DejaVuSans-29"/>
     </g>
    </g>
   </g>
   <g id="patch_3">
    <path d="M 54 252 
L 54 34.56 
" style="fill:none;stroke:#000000;stroke-linecap:square;stroke-linejoin:miter;stroke-width:0.8;"/>
   </g>
   <g id="patch_4">
    <path d="M 388.8 252 
L 388.8 34.56 
" style="fill:none;stroke:#000000;stroke-linecap:square;stroke-linejoin:miter;stroke-width:0.8;"/>
   </g>
   <g id="patch_5">
    <path d="M 54 252 
L 388.8 252 
" style="fill:none;stroke:#000000;stroke-linecap:square;stroke-linejoin:miter;stroke-width:0.8;"/>
   </g>
   <g id="patch_6">
    <path d="M 54 34.56 
L 388.8 34.56 
" style="fill:none;stroke:#000000;stroke-linecap:square;stroke-linejoin:miter;stroke-width:0.8;"/>
   </g>
   <g id="legend_1">
    <g id="patch_7">
     <path d="M 61 86.594375 
L 116.810937 86.594375 
Q 118.810937 86.594375 118.810937 84.594375 
L 118.810937 41.56 
Q 118.810937 39.56 116.810937 39.56 
L 61 39.56 
Q 59 39.56 59 41.56 
L 59 84.594375 
Q 59 86.594375 61 86.594375 
z
" style="fill:#ffffff;opacity:0.8;stroke:#cccccc;stroke-linejoin:miter;"/>
    </g>
    <g id="PathCollection_4">
     <g>
      <use style="fill:#1f77b4;stroke:#ffffff;stroke-width:0.48;" x="73" xlink:href="#m4949e268b3" y="48.533438"/>
     </g>
    </g>
    <g id="text_17">
     <!-- BT -->
     <g transform="translate(91 51.158438)scale(0.1 -0.1)">
      <defs>
       <path d="M 1259 2228 
L 1259 519 
L 2272 519 
Q 2781 519 3026 730 
Q 3272 941 3272 1375 
Q 3272 1813 3026 2020 
Q 2781 2228 2272 2228 
L 1259 2228 
z
M 1259 4147 
L 1259 2741 
L 2194 2741 
Q 2656 2741 2882 2914 
Q 3109 3088 3109 3444 
Q 3109 3797 2882 3972 
Q 2656 4147 2194 4147 
L 1259 4147 
z
M 628 4666 
L 2241 4666 
Q 2963 4666 3353 4366 
Q 3744 4066 3744 3513 
Q 3744 3084 3544 2831 
Q 3344 2578 2956 2516 
Q 3422 2416 3680 2098 
Q 3938 1781 3938 1306 
Q 3938 681 3513 340 
Q 3088 0 2303 0 
L 628 0 
L 628 4666 
z
" id="DejaVuSans-42" transform="scale(0.015625)"/>
       <path d="M -19 4666 
L 3928 4666 
L 3928 4134 
L 2272 4134 
L 2272 0 
L 1638 0 
L 1638 4134 
L -19 4134 
L -19 4666 
z
" id="DejaVuSans-54" transform="scale(0.015625)"/>
      </defs>
      <use xlink:href="#DejaVuSans-42"/>
      <use x="68.603516" xlink:href="#DejaVuSans-54"/>
     </g>
    </g>
    <g id="PathCollection_5">
     <g>
      <use style="fill:#ff0000;stroke:#ffffff;stroke-width:0.48;" x="73" xlink:href="#m4105ce767a" y="63.211563"/>
     </g>
    </g>
    <g id="text_18">
     <!-- BT-O -->
     <g transform="translate(91 65.836563)scale(0.1 -0.1)">
      <defs>
       <path d="M 313 2009 
L 1997 2009 
L 1997 1497 
L 313 1497 
L 313 2009 
z
" id="DejaVuSans-2d" transform="scale(0.015625)"/>
       <path d="M 2522 4238 
Q 1834 4238 1429 3725 
Q 1025 3213 1025 2328 
Q 1025 1447 1429 934 
Q 1834 422 2522 422 
Q 3209 422 3611 934 
Q 4013 1447 4013 2328 
Q 4013 3213 3611 3725 
Q 3209 4238 2522 4238 
z
M 2522 4750 
Q 3503 4750 4090 4092 
Q 4678 3434 4678 2328 
Q 4678 1225 4090 567 
Q 3503 -91 2522 -91 
Q 1538 -91 948 565 
Q 359 1222 359 2328 
Q 359 3434 948 4092 
Q 1538 4750 2522 4750 
z
" id="DejaVuSans-4f" transform="scale(0.015625)"/>
      </defs>
      <use xlink:href="#DejaVuSans-42"/>
      <use x="68.603516" xlink:href="#DejaVuSans-54"/>
      <use x="120.5625" xlink:href="#DejaVuSans-2d"/>
      <use x="159.396484" xlink:href="#DejaVuSans-4f"/>
     </g>
    </g>
    <g id="PathCollection_6">
     <g>
      <use style="fill:#008000;stroke:#ffffff;stroke-width:0.48;" x="73" xlink:href="#mcb689305fb" y="77.889688"/>
     </g>
    </g>
    <g id="text_19">
     <!-- BT-F -->
     <g transform="translate(91 80.514688)scale(0.1 -0.1)">
      <defs>
       <path d="M 628 4666 
L 3309 4666 
L 3309 4134 
L 1259 4134 
L 1259 2759 
L 3109 2759 
L 3109 2228 
L 1259 2228 
L 1259 0 
L 628 0 
L 628 4666 
z
" id="DejaVuSans-46" transform="scale(0.015625)"/>
      </defs>
      <use xlink:href="#DejaVuSans-42"/>
      <use x="68.603516" xlink:href="#DejaVuSans-54"/>
      <use x="120.5625" xlink:href="#DejaVuSans-2d"/>
      <use x="156.646484" xlink:href="#DejaVuSans-46"/>
     </g>
    </g>
   </g>
  </g>
 </g>
 <defs>
  <clipPath id="pa3f4a1e9e5">
   <rect height="217.44" width="334.8" x="54" y="34.56"/>
  </clipPath>
 </defs>
</svg>
